<svg
    width="24"
    height="19"
    viewBox="0 0 24 19"
    fill="none"
    xmlns="http://www.w3.org/2000/svg"
>
<path
    d="M0 16.6667C0 17.7708 0.895833 18.6667 2 18.6667H22C23.1042 18.6667 24 17.7708 24 16.6667V9.33333H0V16.6667ZM8 13.8333C8 13.5583 8.225 13.3333 8.5 13.3333H14.1667C14.4417 13.3333 14.6667 13.5583 14.6667 13.8333V15.5C14.6667 15.775 14.4417 16 14.1667 16H8.5C8.225 16 8 15.775 8 15.5V13.8333ZM2.66667 13.8333C2.66667 13.5583 2.89167 13.3333 3.16667 13.3333H6.16667C6.44167 13.3333 6.66667 13.5583 6.66667 13.8333V15.5C6.66667 15.775 6.44167 16 6.16667 16H3.16667C2.89167 16 2.66667 15.775 2.66667 15.5V13.8333ZM24 2V4H0V2C0 0.895833 0.895833 0 2 0H22C23.1042 0 24 0.895833 24 2Z"
    fill="#212529"
/>
</svg>
