<?xml version="1.0" encoding="UTF-8"?>
<svg xmlns="http://www.w3.org/2000/svg" xmlns:xlink="http://www.w3.org/1999/xlink" width="64px" height="21px" viewBox="0 0 63 21" version="1.1">
<g id="surface1">
<path style=" stroke:none;fill-rule:nonzero;fill:rgb(0%,0%,0%);fill-opacity:1;" d="M 23.109375 14.699219 L 23.109375 7.804688 L 20.621094 7.804688 L 20.621094 6.300781 L 27.234375 6.300781 L 27.234375 7.8125 L 24.746094 7.8125 L 24.746094 14.699219 Z M 23.109375 14.699219 "/>
<path style=" stroke:none;fill-rule:nonzero;fill:rgb(0%,0%,0%);fill-opacity:1;" d="M 27.046875 14.699219 L 27.046875 8.59375 L 28.570312 8.59375 L 28.570312 9.558594 C 28.964844 8.746094 29.457031 8.59375 29.988281 8.59375 L 30.585938 8.59375 L 30.585938 10.121094 L 30.0625 10.121094 C 29.289062 10.121094 28.609375 10.566406 28.609375 11.917969 L 28.609375 14.691406 L 27.046875 14.691406 Z M 27.046875 14.699219 "/>
<path style=" stroke:none;fill-rule:nonzero;fill:rgb(0%,0%,0%);fill-opacity:1;" d="M 31.449219 12.492188 L 31.449219 8.601562 L 33.011719 8.601562 L 33.011719 12.121094 C 33.011719 12.902344 33.414062 13.421875 34.128906 13.421875 C 34.816406 13.421875 35.332031 12.902344 35.332031 12.128906 L 35.332031 8.59375 L 36.894531 8.59375 L 36.894531 14.699219 L 35.378906 14.699219 L 35.378906 13.925781 C 34.984375 14.539062 34.382812 14.835938 33.617188 14.835938 C 32.332031 14.84375 31.449219 13.976562 31.449219 12.492188 Z M 31.449219 12.492188 "/>
<path style=" stroke:none;fill-rule:nonzero;fill:rgb(0%,0%,0%);fill-opacity:1;" d="M 37.722656 12.976562 L 39.101562 12.667969 C 39.167969 13.203125 39.605469 13.566406 40.335938 13.566406 C 40.933594 13.566406 41.277344 13.3125 41.277344 12.988281 C 41.277344 12.71875 41.117188 12.542969 40.539062 12.398438 L 39.546875 12.171875 C 38.386719 11.902344 37.84375 11.355469 37.84375 10.339844 C 37.84375 9.308594 38.707031 8.484375 40.285156 8.484375 C 41.957031 8.484375 42.648438 9.476562 42.738281 10.1875 L 41.363281 10.492188 C 41.292969 10.113281 41.007812 9.710938 40.253906 9.710938 C 39.757812 9.710938 39.386719 9.9375 39.386719 10.265625 C 39.386719 10.550781 39.605469 10.710938 39.941406 10.792969 L 41.285156 11.113281 C 42.335938 11.363281 42.839844 11.976562 42.839844 12.878906 C 42.839844 13.859375 42.042969 14.824219 40.34375 14.824219 C 38.496094 14.816406 37.808594 13.726562 37.722656 12.976562 Z M 37.722656 12.976562 "/>
<path style=" stroke:none;fill-rule:nonzero;fill:rgb(0%,0%,0%);fill-opacity:1;" d="M 46.058594 14.699219 C 45.007812 14.699219 44.34375 14.105469 44.34375 12.988281 L 44.34375 9.953125 L 43.328125 9.953125 L 43.328125 8.59375 L 44.34375 8.59375 L 44.34375 7.207031 L 45.90625 6.761719 L 45.90625 8.601562 L 47.148438 8.601562 L 47.148438 9.960938 L 45.90625 9.960938 L 45.90625 12.726562 C 45.90625 13.171875 46.125 13.347656 46.578125 13.347656 L 47.257812 13.347656 L 47.257812 14.699219 Z M 46.058594 14.699219 "/>
<path style=" stroke:none;fill-rule:nonzero;fill:rgb(0%,0%,0%);fill-opacity:1;" d="M 48.28125 14.699219 L 48.28125 6.300781 L 49.84375 6.300781 L 49.84375 14.699219 Z M 48.28125 14.699219 "/>
<path style=" stroke:none;fill-rule:nonzero;fill:rgb(0%,0%,0%);fill-opacity:1;" d="M 55.019531 8.601562 L 56.699219 8.601562 L 54.121094 16.890625 L 52.441406 16.890625 L 53.15625 14.707031 L 52.308594 14.707031 L 50.566406 8.601562 L 52.246094 8.601562 L 53.574219 13.40625 Z M 55.019531 8.601562 "/>
<path style=" stroke:none;fill-rule:nonzero;fill:rgb(0%,0%,0%);fill-opacity:1;" d="M 6.300781 9.980469 L 10.222656 9.980469 L 10.222656 6.855469 L 13.347656 9.980469 L 10.222656 13.105469 L 10.222656 14.699219 L 14.011719 14.699219 L 14.011719 9.980469 L 17.496094 9.980469 L 17.496094 6.300781 L 6.300781 6.300781 Z M 6.300781 9.980469 "/>
</g>
</svg>
