<?xml version="1.0" encoding="UTF-8"?>
<svg xmlns="http://www.w3.org/2000/svg" xmlns:xlink="http://www.w3.org/1999/xlink" width="48px" height="16px" viewBox="0 0 48 16" version="1.1">
<g id="surface1">
<path style=" stroke:none;fill-rule:nonzero;fill:rgb(0%,0%,0%);fill-opacity:1;" d="M 17.605469 11.199219 L 17.605469 5.945312 L 15.710938 5.945312 L 15.710938 4.800781 L 20.75 4.800781 L 20.75 5.953125 L 18.855469 5.953125 L 18.855469 11.199219 Z M 17.605469 11.199219 "/>
<path style=" stroke:none;fill-rule:nonzero;fill:rgb(0%,0%,0%);fill-opacity:1;" d="M 20.609375 11.199219 L 20.609375 6.546875 L 21.765625 6.546875 L 21.765625 7.28125 C 22.066406 6.664062 22.445312 6.546875 22.847656 6.546875 L 23.300781 6.546875 L 23.300781 7.710938 L 22.90625 7.710938 C 22.316406 7.710938 21.796875 8.050781 21.796875 9.082031 L 21.796875 11.195312 L 20.609375 11.195312 Z M 20.609375 11.199219 "/>
<path style=" stroke:none;fill-rule:nonzero;fill:rgb(0%,0%,0%);fill-opacity:1;" d="M 23.960938 9.515625 L 23.960938 6.554688 L 25.152344 6.554688 L 25.152344 9.234375 C 25.152344 9.832031 25.460938 10.226562 26.003906 10.226562 C 26.527344 10.226562 26.917969 9.832031 26.917969 9.242188 L 26.917969 6.546875 L 28.109375 6.546875 L 28.109375 11.199219 L 26.957031 11.199219 L 26.957031 10.609375 C 26.65625 11.078125 26.195312 11.300781 25.613281 11.300781 C 24.632812 11.308594 23.960938 10.648438 23.960938 9.515625 Z M 23.960938 9.515625 "/>
<path style=" stroke:none;fill-rule:nonzero;fill:rgb(0%,0%,0%);fill-opacity:1;" d="M 28.742188 9.886719 L 29.792969 9.652344 C 29.84375 10.0625 30.175781 10.335938 30.734375 10.335938 C 31.1875 10.335938 31.449219 10.144531 31.449219 9.894531 C 31.449219 9.691406 31.328125 9.554688 30.886719 9.445312 L 30.132812 9.273438 C 29.246094 9.070312 28.832031 8.652344 28.832031 7.878906 C 28.832031 7.089844 29.492188 6.464844 30.695312 6.464844 C 31.96875 6.464844 32.492188 7.21875 32.5625 7.761719 L 31.511719 7.992188 C 31.460938 7.707031 31.246094 7.398438 30.667969 7.398438 C 30.292969 7.398438 30.007812 7.570312 30.007812 7.820312 C 30.007812 8.039062 30.175781 8.160156 30.433594 8.222656 L 31.457031 8.46875 C 32.257812 8.660156 32.640625 9.125 32.640625 9.8125 C 32.640625 10.558594 32.03125 11.296875 30.738281 11.296875 C 29.332031 11.289062 28.804688 10.457031 28.742188 9.886719 Z M 28.742188 9.886719 "/>
<path style=" stroke:none;fill-rule:nonzero;fill:rgb(0%,0%,0%);fill-opacity:1;" d="M 35.089844 11.199219 C 34.292969 11.199219 33.785156 10.746094 33.785156 9.894531 L 33.785156 7.585938 L 33.011719 7.585938 L 33.011719 6.546875 L 33.785156 6.546875 L 33.785156 5.492188 L 34.976562 5.152344 L 34.976562 6.554688 L 35.921875 6.554688 L 35.921875 7.589844 L 34.976562 7.589844 L 34.976562 9.695312 C 34.976562 10.035156 35.140625 10.167969 35.488281 10.167969 L 36.007812 10.167969 L 36.007812 11.199219 Z M 35.089844 11.199219 "/>
<path style=" stroke:none;fill-rule:nonzero;fill:rgb(0%,0%,0%);fill-opacity:1;" d="M 36.789062 11.199219 L 36.789062 4.800781 L 37.976562 4.800781 L 37.976562 11.199219 Z M 36.789062 11.199219 "/>
<path style=" stroke:none;fill-rule:nonzero;fill:rgb(0%,0%,0%);fill-opacity:1;" d="M 41.921875 6.554688 L 43.199219 6.554688 L 41.234375 12.871094 L 39.957031 12.871094 L 40.5 11.207031 L 39.851562 11.207031 L 38.527344 6.554688 L 39.808594 6.554688 L 40.820312 10.214844 Z M 41.921875 6.554688 "/>
<path style=" stroke:none;fill-rule:nonzero;fill:rgb(0%,0%,0%);fill-opacity:1;" d="M 4.800781 7.601562 L 7.789062 7.601562 L 7.789062 5.222656 L 10.167969 7.601562 L 7.789062 9.984375 L 7.789062 11.199219 L 10.675781 11.199219 L 10.675781 7.601562 L 13.332031 7.601562 L 13.332031 4.800781 L 4.800781 4.800781 Z M 4.800781 7.601562 "/>
</g>
</svg>
